<?xml version="1.0" standalone="no"?>
<!DOCTYPE svg PUBLIC "-//W3C//DTD SVG 20010904//EN"
 "http://www.w3.org/TR/2001/REC-SVG-20010904/DTD/svg10.dtd">
<svg xmlns="http://www.w3.org/2000/svg" width="1010.667" height="918.667" version="1.0" viewBox="0 0 758 689">
  <rect width="100%" height="100%" fill="white"/>


<g transform="translate(0.000000,689.000000) scale(0.100000,-0.100000)"
fill="white" stroke="none">
<path d="M3805 6530 c-79 -9 -140 -37 -207 -96 -30 -27 -114 -101 -188 -164
-74 -63 -157 -135 -185 -160 -29 -25 -76 -65 -106 -90 -29 -25 -74 -63 -99
-86 -25 -22 -75 -65 -111 -95 -58 -47 -234 -198 -494 -424 -45 -38 -128 -111
-186 -162 -57 -50 -145 -127 -195 -170 -87 -75 -266 -231 -459 -398 -51 -44
-118 -102 -151 -130 -32 -27 -113 -97 -180 -155 -67 -58 -193 -167 -281 -242
-100 -85 -167 -151 -177 -172 -40 -85 -8 -201 72 -263 55 -42 115 -53 291 -53
111 0 151 -3 160 -13 7 -10 11 -381 13 -1303 3 -1481 -6 -1342 102 -1449 102
-101 44 -95 913 -95 l753 0 14 22 c9 16 15 68 19 163 6 161 -2 193 -55 225
-32 19 -49 20 -634 20 -453 0 -603 3 -612 12 -15 15 -18 2772 -3 2810 13 34
336 320 736 653 33 27 103 88 156 135 53 47 133 117 179 155 45 39 88 75 94
80 6 6 43 37 81 70 91 77 166 141 284 245 151 133 220 192 301 261 41 35 99
85 129 111 l53 49 47 -38 c25 -21 84 -71 132 -113 47 -41 181 -156 299 -255
118 -99 232 -196 254 -216 23 -20 156 -134 296 -253 140 -120 329 -282 420
-360 91 -79 253 -217 361 -309 129 -108 202 -178 213 -200 15 -32 16 -154 16
-1405 0 -968 -3 -1378 -11 -1401 l-11 -31 -609 0 -609 0 -38 -34 -37 -34 0
-159 c0 -111 4 -165 13 -181 l13 -23 762 3 762 3 55 28 c77 39 145 110 173
177 l22 55 3 1284 c2 919 6 1288 13 1298 9 10 50 13 168 13 86 1 176 5 200 9
134 26 215 183 156 305 -11 24 -62 76 -139 143 -67 58 -139 122 -162 142 -22
20 -65 56 -94 81 -70 58 -191 160 -255 213 -120 101 -347 297 -430 371 -50 45
-160 140 -244 211 -85 72 -206 175 -270 230 -64 55 -174 150 -246 210 -71 60
-195 165 -275 235 -80 69 -206 177 -280 240 -74 63 -144 123 -155 133 -11 11
-53 47 -94 80 -41 34 -106 90 -145 125 -125 111 -197 143 -301 132z"/>
<path d="M3670 4353 c-204 -16 -429 -62 -635 -130 -285 -95 -695 -348 -854
-529 -43 -49 -66 -123 -55 -172 26 -106 114 -182 211 -182 80 0 117 17 202 91
79 67 98 82 221 168 74 52 254 141 370 184 252 93 385 117 687 124 185 5 229
2 349 -17 367 -58 719 -220 971 -445 83 -74 123 -96 185 -102 155 -14 278 148
223 293 -23 60 -57 98 -169 187 -152 123 -243 181 -426 274 -278 142 -584 229
-890 253 -103 9 -301 10 -390 3z"/>
<path d="M3635 3505 c-322 -44 -591 -151 -805 -321 -152 -120 -193 -190 -172
-290 19 -94 81 -156 173 -176 76 -16 119 -4 186 48 100 78 220 154 307 194 83
39 221 84 286 94 94 16 250 26 295 21 114 -14 133 -17 200 -32 39 -8 93 -22
120 -30 92 -28 289 -131 360 -187 139 -111 139 -111 229 -111 74 0 85 3 123
30 82 59 118 176 80 266 -31 75 -210 220 -382 310 -301 157 -685 228 -1000
184z"/>
<path d="M3665 2656 c-132 -29 -317 -115 -382 -178 -95 -92 -75 -284 35 -346
29 -16 56 -22 102 -22 54 0 74 6 150 44 120 62 194 79 300 73 92 -6 155 -26
257 -84 34 -19 82 -37 106 -39 51 -6 131 18 166 50 73 65 82 210 19 302 -37
54 -199 144 -338 186 -83 26 -325 34 -415 14z"/>
<path d="M3773 1900 c-133 -27 -229 -138 -255 -294 -9 -56 -8 -71 10 -126 43
-126 140 -211 266 -233 128 -22 256 36 329 148 39 61 60 147 52 214 -18 149
-118 259 -263 290 -59 12 -79 12 -139 1z"/>
</g>
</svg>
